<?xml version="1.0" encoding="UTF-8" standalone="no"?>
<svg
   width="1443"
   height="1018"
   fill="none"
   version="1.1"
   id="svg372"
   sodipodi:docname="log_in.svg"
   inkscape:version="1.2.1 (9c6d41e410, 2022-07-14)"
   xmlns:inkscape="http://www.inkscape.org/namespaces/inkscape"
   xmlns:sodipodi="http://sodipodi.sourceforge.net/DTD/sodipodi-0.dtd"
   xmlns="http://www.w3.org/2000/svg"
   xmlns:svg="http://www.w3.org/2000/svg">
  <defs
     id="defs376" />
  <sodipodi:namedview
     id="namedview374"
     pagecolor="#ffffff"
     bordercolor="#000000"
     borderopacity="0.25"
     inkscape:showpageshadow="2"
     inkscape:pageopacity="0.0"
     inkscape:pagecheckerboard="0"
     inkscape:deskcolor="#d1d1d1"
     showgrid="false"
     inkscape:zoom="0.81434185"
     inkscape:cx="722.05549"
     inkscape:cy="509.61399"
     inkscape:window-width="1920"
     inkscape:window-height="1009"
     inkscape:window-x="-8"
     inkscape:window-y="-8"
     inkscape:window-maximized="1"
     inkscape:current-layer="svg372" />
  <style
     id="style190">
    .letter {
      animation: letter 2s ease 0s infinite normal forwards;
    }
    @keyframes letter {
      0%,
      100% {
        transform: translateX(0);
      }

      10%,
      30%,
      50%,
      70% {
        transform: translateX(-10px);
      }

      20%,
      40%,
      60% {
        transform: translateX(10px);
      }

      80% {
        transform: translateX(8px);
      }

      90% {
        transform: translateX(-8px);
      }
    }
    .window_1 {
      animation: ch-color-1 7s 2s infinite forwards;
      }
    .window_2 {
      animation: ch-color-2 6s 1s infinite forwards;
    }
    .window_3 {
      animation: ch-color-3 6s 1.5s infinite forwards;
    }
    .window_4 {
      animation: ch-color-1 6s 2.5s infinite forwards;
    }
    .window_5 {
      animation: ch-color-3 6s 3.5s infinite forwards;
    }
    .window_6 {
      animation: ch-color-2 6s 2.75s infinite forwards;
    }
    .window_7 {
      animation: ch-color-1 6s 3.15s infinite forwards;
    }
    @keyframes ch-color-1 {
      0%{
        fill: #F5EBDD;
      }
      50% {
        fill: #30242A;
      }
      100%{
        fill: #F5EBDD;
      }
    }
    @keyframes ch-color-2 {
      0%{
        fill: #F5EBDD;
      }
      50% {
        fill: #CA7358;
      }
      100%{
        fill: #F5EBDD;
      }
    }
    @keyframes ch-color-3 {
      0%{
        fill: #CA7358;
      }
      50% {
        fill: #F5EBDD;
      }
      100%{
        fill: #CA7358;
      }
    }
  </style>
  <path
     d="m 406.26052,177.16 h 19.17 a 164.31,164.31 0 0 1 164.31,164.31 v 324.18 h -347.79 V 341.47 a 164.31,164.31 0 0 1 164.31,-164.31 z"
     fill="#ffb7d5"
     id="path192" />
  <path
     d="m 479.08052,472.63 v 198.1 h -154.5 v -198.1 z m 4,-4 h -162.5 v 206.1 h 162.5 z"
     fill="#ca7358"
     id="path194" />
  <path
     d="m 483.08052,468.63 h -162.5 v 42.61 h 162.5 z"
     fill="#ca7358"
     id="path196" />
  <path
     d="m 319.80052,365.62 v 306.1 h -93.07 v -306.1 z m 4,-4 h -101.07 v 314.1 h 101.07 z m 282.85,-57.93 v 367 h -122.79 v -367 z m 4,-4 h -130.79 v 375 h 130.79 z"
     fill="#ca7358"
     id="path198" />
  <path
     d="m 532.65052,349.73 h 1.91 a 16.378,16.378 0 0 1 16.38,16.38 v 38.11 h -34.67 v -38.11 a 16.378,16.378 0 0 1 16.38,-16.38 z"
     fill="#ca7358"
     id="path200" />
  <path
     d="m 512.31052,379.45 h 42.6"
     stroke="#ffb7d5"
     stroke-width="4"
     stroke-linecap="round"
     stroke-linejoin="round"
     id="path202" />
  <path
     d="m 532.65052,447.49 h 1.91 a 16.378,16.378 0 0 1 16.38,16.38 V 502 h -34.67 v -38.12 a 16.378,16.378 0 0 1 16.38,-16.38 z"
     fill="#f5ebdd"
     id="path204" />
  <path
     d="m 512.31052,477.22 h 42.6"
     stroke="#ffb7d5"
     stroke-width="4"
     stroke-linecap="round"
     stroke-linejoin="round"
     id="path206" />
  <path
     d="m 532.65052,545.26 h 1.91 a 16.378,16.378 0 0 1 16.38,16.38 v 38.11 h -34.67 v -38.11 a 16.378,16.378 0 0 1 16.38,-16.38 z"
     fill="#f5ebdd"
     id="path208" />
  <path
     d="m 512.31052,574.98 h 42.6"
     stroke="#ffb7d5"
     stroke-width="4"
     stroke-linecap="round"
     stroke-linejoin="round"
     id="path210" />
  <path
     d="m 532.65052,643 h 1.91 a 16.378,16.378 0 0 1 16.38,16.38 v 35 h -34.67 v -35 a 16.378,16.378 0 0 1 16.38,-16.38 z"
     fill="#30242a"
     id="path212" />
  <path
     class="window_1"
     d="m 252.65052,430.73 h 1.91 a 16.378,16.378 0 0 1 16.38,16.38 v 38.11 h -34.67 v -38.11 a 16.378,16.378 0 0 1 16.38,-16.38 z"
     fill="#f5ebdd"
     id="path214" />
  <path
     d="m 232.31052,460.45 h 42.6"
     stroke="#ffb7d5"
     stroke-width="4"
     stroke-linecap="round"
     stroke-linejoin="round"
     id="path216" />
  <path
     class="window_2"
     d="m 252.65052,528.49 h 1.91 a 16.378,16.378 0 0 1 16.38,16.38 V 583 h -34.67 v -38.12 a 16.374,16.374 0 0 1 4.794,-11.589 16.38,16.38 0 0 1 11.586,-4.801 z"
     fill="#f5ebdd"
     id="path218" />
  <path
     d="m 232.31052,558.22 h 42.6"
     stroke="#ffb7d5"
     stroke-width="4"
     stroke-linecap="round"
     stroke-linejoin="round"
     id="path220" />
  <path
     class="window_3"
     d="m 252.65052,626.26 h 1.91 a 16.378,16.378 0 0 1 16.38,16.38 v 38.11 h -34.67 v -38.11 a 16.378,16.378 0 0 1 16.38,-16.38 z"
     fill="#ca7358"
     id="path222" />
  <path
     d="m 232.31052,655.98 h 42.6"
     stroke="#ffb7d5"
     stroke-width="4"
     stroke-linecap="round"
     stroke-linejoin="round"
     id="path224" />
  <path
     d="m 610.65052,299.69 h -130.79 v 16.35 h 130.79 z m -286.85,54 h -101.07 v 16.35 h 101.07 z"
     fill="#ca7358"
     id="path226" />
  <path
     class="window_4"
     d="m 384.49052,549.88 h -34.68 v 44.59 h 34.68 z"
     fill="#f5ebdd"
     id="path228" />
  <path
     d="m 345.84052,569.7 h 42.61 m -21.3,26.75 V 569.7"
     stroke="#ffb7d5"
     stroke-width="4"
     stroke-linecap="round"
     stroke-linejoin="round"
     id="path230" />
  <path
     class="window_5"
     d="m 384.49052,630.41 h -34.68 V 675 h 34.68 z"
     fill="#ca7358"
     id="path232" />
  <path
     d="m 345.84052,650.22 h 42.61 m -21.3,26.76 v -26.76"
     stroke="#ffb7d5"
     stroke-width="4"
     stroke-linecap="round"
     stroke-linejoin="round"
     id="path234" />
  <path
     class="window_6"
     d="m 449.88052,549.88 h -34.68 v 44.59 h 34.68 z"
     fill="#30242a"
     id="path236" />
  <path
     d="m 411.24052,569.7 h 42.61 m -21.31,26.75 V 569.7"
     stroke="#ffb7d5"
     stroke-width="4"
     stroke-linecap="round"
     stroke-linejoin="round"
     id="path238" />
  <path
     class="window_7"
     d="m 449.88052,630.41 h -34.68 V 675 h 34.68 z"
     fill="#f5ebdd"
     id="path240" />
  <path
     d="m 411.24052,650.22 h 42.61 m -21.31,26.76 v -26.76"
     stroke="#ffb7d5"
     stroke-width="4"
     stroke-linecap="round"
     stroke-linejoin="round"
     id="path242" />
  <path
     d="m 343.61052,298.2 c 14.227,0 25.76,-11.533 25.76,-25.76 0,-14.227 -11.533,-25.76 -25.76,-25.76 -14.227,0 -25.76,11.533 -25.76,25.76 0,14.227 11.533,25.76 25.76,25.76 z m 290.72,367.61 h -436.97 v 29.73 h 436.97 z"
     fill="#f5ebdd"
     id="path244" />
  <path
     d="m 422.75052,147.59 h -13.81 c -108.61,0 -196.71,88.08 -196.71,196.72 v 351.23 h 407.24 V 344.31 c 0,-108.64 -88.08,-196.72 -196.72,-196.72 z m -21.77,518.22 h -159 V 418.1 h 159 z m 0,-277.44 h -159 v -43.05 a 167.999,167.999 0 0 1 159,-167.76 z m 188.76,277.44 h -159 V 418.1 h 159 z m 0,-277.44 h -159 V 177.56 a 168,168 0 0 1 159,167.76 z"
     fill="#f5ebdd"
     id="path246" />
  <path
     d="m 520.48052,639.7 c 0,0 -68.66,-164.8 -71.66,-207.76 -10.08,-144.59 146.78,-62.22 171.31,-48 17.86,10.36 87.9,49.55 101.88,63.52 9,9 2.74,15.67 2.74,15.67 0,0 10.51,13.8 -4.27,15.44 10.51,13.8 -6.25,15.67 -6.25,15.67 0,0 4.49,13.47 -12.92,9.42 -18.76,-4.37 -161,-65.94 -161,-65.94 0,0 31.78,100.33 41.7,132.07 z"
     fill="#a15842"
     id="path248" />
  <path
     d="m 673.81052,492.17 c 3.38,-0.67 5.66,-2.62 5,-6.81 -2.15,-13.76 -25.14,-26.76 -25.14,-26.76 0,0 9.22,-22.19 -8.88,-39.33"
     stroke="#30242a"
     stroke-width="4"
     stroke-miterlimit="10"
     stroke-linecap="round"
     id="path250" />
  <path
     d="m 714.00052,493.53 c -8.25,-4.83 -38.49,-22.52 -45.66,-26.2 m 52.42,10.79 c -10.32,-6.18 -35.46,-21.83 -45.84,-27.27 m 49.59,10.37 c -13,-8.62 -37.52,-24.59 -47.22,-29.49 m -10.11,33.7 c 3.46,-6.26 9.38,-18.7 9.7,-38.64"
     stroke="#30242a"
     stroke-width="4"
     stroke-miterlimit="10"
     stroke-linecap="round"
     id="path252" />
  <path
     d="m 539.93052,440.06 -23.42,-10.64"
     stroke="#30242a"
     stroke-width="4"
     stroke-linecap="round"
     stroke-linejoin="round"
     id="path254" />
  <path
     d="m 183.10052,907.68 v 19.27 h 166.61 v -19.27 z"
     fill="#a15842"
     id="path256" />
  <path
     d="M 377.15052,1007.65 335.88052,760 h 25.28 a 10.2,10.2 0 0 0 0,-20.4 h -189.27 a 10.202,10.202 0 0 0 -7.213,17.413 10.205,10.205 0 0 0 7.213,2.987 h 25 l -41.27,247.63 a 8.572,8.572 0 0 0 1.896,6.96 8.526,8.526 0 0 0 2.936,2.24 8.55,8.55 0 0 0 8.981,-1.1 8.536,8.536 0 0 0 2.997,-4.84 l 54.71,-250.89 h 78.53 l 54.66,250.88 a 8.573,8.573 0 0 0 2.99,4.85 8.588,8.588 0 0 0 5.37,1.89 c 1.245,0 2.475,-0.27 3.605,-0.79 a 8.518,8.518 0 0 0 2.939,-2.23 8.562,8.562 0 0 0 1.916,-6.95 z"
     fill="#ffbe21"
     id="path258" />
  <path
     d="m 361.16052,760 a 10.2,10.2 0 0 0 0,-20.4 h -189.27 a 10.198,10.198 0 0 0 -10.2,10.2 10.202,10.202 0 0 0 10.2,10.2 h 25 l -0.05,0.31 h 30.19 l 0.07,-0.31 h 78.53 l 0.07,0.31 h 30.23 l -0.05,-0.31 z"
     fill="#a15842"
     id="path260" />
  <path
     d="M 282.27052,999.76 H 47.190519 L 2.8605187,863.34 c -3.29,-10.12 2.25,-18.32 12.3600003,-18.32 H 213.67052 c 10.12,0 21,8.2 24.27,18.32 z m 148.06,0 h -231.15 c 0.665,2.05 0.834,4.23 0.496,6.36 a 13.656,13.656 0 0 1 -2.445,5.88 13.618,13.618 0 0 1 -4.851,4.14 13.76,13.76 0 0 1 -6.2,1.48 h 231.15 c 2.155,0 4.281,-0.5 6.203,-1.48 a 13.591,13.591 0 0 0 4.854,-4.13 13.669,13.669 0 0 0 2.444,-5.89 c 0.337,-2.13 0.166,-4.31 -0.501,-6.36 z"
     fill="#ffb7d5"
     id="path262" />
  <path
     d="M 199.18052,999.76 H 47.420519 l 1.77,5.46 c 1.17,3.6 3.451,6.74 6.515,8.97 a 17.921,17.921 0 0 0 10.545,3.43 H 186.25052 c 2.149,-0.01 4.265,-0.52 6.177,-1.51 a 13.543,13.543 0 0 0 4.825,-4.14 13.636,13.636 0 0 0 1.928,-12.21 z"
     fill="#ca7358"
     id="path264" />
  <path
     d="M 266.25052,999.76 H 65.240519 l -41.95,-128.95 H 224.30052 Z"
     fill="#f5ebdd"
     id="path266" />
  <path
     class="letter"
     d="m 191.05052,974.16 h -61.92 c -6.88,0 -14.26,-5.58 -16.5,-12.45 l -14.930001,-46 c -2.23,-6.87 1.53,-12.45 8.410001,-12.45 h 61.92 c 6.87,0 14.25,5.58 16.49,12.45 l 14.93,46 c 2.23,6.87 -1.53,12.45 -8.4,12.45 z"
     fill="#3ec1f3"
     id="path268" />
  <path
     d="M 48.330519,997.78 H 280.33052"
     stroke="#ca7358"
     stroke-width="4"
     stroke-miterlimit="10"
     stroke-linecap="round"
     id="path270" />
  <path
     class="letter"
     d="m 184.15052,913.51 -24.42,26.08 c -4.73,5 -13.74,5 -21.75,0 L 97.660519,914.17 m 63.030001,24.66 38.5,24.27 m -85.94,0.59 23.02,-24.59"
     stroke="#f5ebdd"
     stroke-width="4"
     stroke-miterlimit="10"
     stroke-linecap="round"
     id="path272" />
  <path
     class="letter"
     d="m 186.52052,921.16 c -7.7,0 -16,-6.3 -18.54,-14 -1.18,-3.64 -0.87,-7 0.88,-9.39 1.61,-2.2 4.32,-3.42 7.64,-3.42 7.7,0 16,6.3 18.53,14.05 1.19,3.64 0.88,7 -0.88,9.38 -1.6,2.16 -4.31,3.38 -7.63,3.38 z"
     fill="#4756df"
     id="path274" />
  <path
     class="letter"
     d="m 176.50052,896.3 c 6.78,0 14.4,5.8 16.63,12.66 1,3 0.77,5.72 -0.59,7.6 a 7.169,7.169 0 0 1 -6,2.6 c -6.79,0 -14.4,-5.8 -16.63,-12.67 -1,-3 -0.77,-5.71 0.59,-7.59 1.22,-1.68 3.35,-2.6 6,-2.6 z m 0,-4 c -8.52,0 -13.19,6.91 -10.42,15.43 2.77,8.52 11.92,15.43 20.44,15.43 8.52,0 13.19,-6.91 10.42,-15.43 -2.77,-8.52 -11.92,-15.43 -20.44,-15.43 z"
     fill="#f5ebdd"
     id="path276" />
  <path
     d="m 999.42052,549.44 h -0.25 c -1.78,3.22 -13.51,22.91 -34.12,22.91 -20.61,0 -32.34,-19.69 -34.13,-22.91 h -0.24 l -32.08,144.81 h 132.89998 z"
     fill="#3ec1f3"
     id="path278" />
  <path
     d="m 913.80052,626.47 c 27.22,2.85 69.49,27.16 84.18,67.36"
     stroke="#f5ebdd"
     stroke-width="4"
     stroke-miterlimit="10"
     stroke-linecap="round"
     id="path280" />
  <path
     d="m 931.44052,695 c 3.05,-32.75 29,-86.88 75.69998,-103.81 m -42.57998,-29.51 c -11.47,12.09 -25.93,23.35 -42.29,30.91"
     stroke="#f5ebdd"
     stroke-width="4"
     stroke-miterlimit="10"
     stroke-linecap="round"
     id="path282" />
  <path
     d="m 965.05052,572.35 c 20.61,0 32.34,-19.69 34.12,-22.91 h -68.25 c 1.79,3.22 13.51,22.91 34.13,22.91 z"
     fill="#30242a"
     id="path284" />
  <path
     d="m 777.79052,1017.62 a 8.82,8.82 0 0 1 -3.999,-0.96 8.746,8.746 0 0 1 -3.124,-2.68 8.77,8.77 0 0 1 -1.564,-3.8 8.802,8.802 0 0 1 0.337,-4.1 l 27.58,-83.92 a 8.796,8.796 0 0 1 3.2,-4.35 8.785,8.785 0 0 1 5.15,-1.65 h 19.3 a 8.787,8.787 0 0 1 4.37,1.16 8.834,8.834 0 0 1 3.22,3.179 8.901,8.901 0 0 1 1.21,4.358 8.839,8.839 0 0 1 -1.12,4.383 l -46.88,83.92 a 8.838,8.838 0 0 1 -3.237,3.27 8.879,8.879 0 0 1 -4.443,1.19 z"
     fill="#a15842"
     id="path286" />
  <path
     d="M 1189.3305,692.61 H 736.77052 v 259.08 h 452.55998 z"
     fill="#ffb7d5"
     id="path288" />
  <path
     d="M 1155.2705,726 V 918.28 H 770.83052 V 726 Z m 4,-4 H 766.83052 v 200.28 h 392.43998 z"
     fill="#ca7358"
     id="path290" />
  <path
     d="M 962.63052,721.64 V 922.66"
     stroke="#ca7358"
     stroke-width="4"
     stroke-miterlimit="10"
     id="path292" />
  <path
     d="m 1008.1105,833.8 c 6.43,0 11.65,-5.216 11.65,-11.65 0,-6.434 -5.22,-11.65 -11.65,-11.65 -6.43,0 -11.64998,5.216 -11.64998,11.65 0,6.434 5.21998,11.65 11.64998,11.65 z m -90.11998,0 c 6.43,0 11.65,-5.216 11.65,-11.65 0,-6.434 -5.22,-11.65 -11.65,-11.65 -6.43,0 -11.65,5.216 -11.65,11.65 0,6.434 5.22,11.65 11.65,11.65 z"
     fill="#30242a"
     id="path294" />
  <path
     d="m 295.85052,615.2 a 29.27,29.27 0 0 1 29.27,29.27 v 95.41 h -58.54 v -95.41 a 29.27,29.27 0 0 1 29.27,-29.27 z"
     fill="#4756df"
     id="path296" />
  <path
     d="m 325.13052,652.59 h -58.55 v 54.55 h 58.55 z"
     fill="#3ec1f3"
     id="path298" />
  <path
     d="m 308.86052,600.02 h -26.02 v 18.43 h 26.02 z m 345.03,-154.74 c 19.993,0 36.2,-16.207 36.2,-36.2 0,-19.993 -16.207,-36.2 -36.2,-36.2 -19.993,0 -36.2,16.207 -36.2,36.2 0,19.993 16.207,36.2 36.2,36.2 z"
     fill="#30242a"
     id="path300" />
  <path
     d="m 625.78052,431.46 c 2.89,1.31 -21.62,-56 -33.9,-46.92 -11.55,8.51 19.28,40.27 33.9,46.92 z"
     fill="#ffbe21"
     id="path302" />
  <path
     d="m 622.67052,431.35 c 2.4,3 60.25,-16 52.52,-27.78 -7.42,-11.3 -54.92,24.8 -52.52,27.78 z"
     fill="#ffbe21"
     id="path304" />
  <path
     d="m 693.57052,389.74 c 12.874,0 23.31,-10.436 23.31,-23.31 0,-12.874 -10.436,-23.31 -23.31,-23.31 -12.874,0 -23.31,10.436 -23.31,23.31 0,12.874 10.436,23.31 23.31,23.31 z"
     fill="#30242a"
     id="path306" />
  <path
     d="m 534.37052,779.56 h 119.03 l 6.28,-29.76 h -143.42 z m -1.04,-98.2 c 0,0 24.31,-31.74 69.93,-34.72 l 30.29,-65.07 a 849.14,849.14 0 0 0 -13.92,-2.11 c 1.2,-2.9 5.28,-12.5 10.21,-24.34 -8.92,-5.93 -23.49,-17.59 -26.86,-32.3 10.7,-1.61 32,-11.71 23.59,-29.38 -10.3,-21.67 -37.56,-5 -37.56,-5 a 62.87,62.87 0 0 1 -15.18,-33.44 c -3.31,0.34 -12.79,-0.67 -19.52,-4.31 l -0.45,-0.26 a 229.033,229.033 0 0 0 -9.68,21.73 c -0.75,1.9 -1.47,3.74 -2.23,5.49 0,0 -9.41,-1.6 -11.34,2.29 -2.39,4.8 4.77,11 4.77,11 -5.72,10.76 -10.79,19.57 -8.95,30.73 1.62,9.85 10.91,21.82 32.8,23.82 l -11,34.71 -41,71.19 c 8.04,4.71 18.84,13.68 26.1,29.97 z M 823.01052,542 c -12.91,-16.11 -59,-81.89 -74.39,-94.23 -9.92,-7.94 -15.87,-1 -15.87,-1 0,0 -14.88,-8.93 -14.88,5.95 -14.88,-8.93 -14.88,7.93 -14.88,7.93 0,0 -13.89,-3 -7.93,13.89 6.41,18.16 78.36,149.24 78.36,149.24 0,0 -74.4,-27.77 -103.16,-35.17 -5.28,-1.36 -11.75,-2.7 -18.28,-3.92 -4.21,9.86 -10.79,26 -21.4,53 -14.4,36.55 -7.4,73.09 34.27,87.59 l 7.39,-35 c 0,0 77,28.94 120,27.77 145.83,-3.96 48.63,-153.74 30.77,-176.05 z"
     fill="#ca7358"
     id="path308" />
  <path
     d="m 573.83052,455 a 62.869,62.869 0 0 0 15.22,33.53 c 0,0 27.26,-16.72 37.56,5 8.41,17.67 -12.89,27.77 -23.59,29.38 3.37,14.71 17.94,26.37 26.86,32.3 7.32,-17.59 16.5,-40.14 20.82,-53 6.39,-19.06 9.69,-48.6 -19,-69.94 -26.85,-19.93 -57.62,-6.71 -64.56,0.23 -4.12,4.12 -8,8 -13.24,18 l 0.45,0.26 c 6.69,3.53 16.17,4.54 19.48,4.24 z"
     fill="#30242a"
     id="path310" />
  <path
     d="m 630.58052,637.72 c 10.61,-26.94 17.19,-43.12 21.4,-53 -6.44,-1.21 -12.93,-2.3 -18.39,-3.17 l -30.26,65.09 c -45.62,3 -69.93,34.72 -69.93,34.72 -7.3,-16.29 -18.1,-25.26 -26.09,-30 l -9.14,15.87 a 54.11,54.11 0 0 0 1,54.48 l 17.08,28.07 h 143.43 l 5.17,-24.49 c -41.67,-14.48 -48.67,-51.02 -34.27,-87.57 z"
     fill="#ffbe21"
     id="path312" />
  <path
     d="m 559.85052,547.54 a 65.865,65.865 0 0 0 18.38,-2.72 m 127.63,-49.97 c 0.73,-2.54 2.53,-4.19 6.06,-3.94 13.89,1 28.76,22.82 28.76,22.82 0,0 21.35,-11 39.94,5.55"
     stroke="#30242a"
     stroke-width="4"
     stroke-miterlimit="10"
     stroke-linecap="round"
     id="path314" />
  <path
     d="m 705.01052,460.11 c 7.76,12.23 22.18,35 25.75,40.72 m -11.43,-49.21 c 8,11.78 22,31.88 27.31,40.29 m -11.65,-44.91 c 10,12.76 25.32,32.56 30.49,41 m -32.73,12.83 c 6,-4 17.85,-10.91 37.69,-12.89 m -151.04,89.4 -17.58,-2.11 m -44.64,194.41 -0.99,-1.98 m 115.07,-75.46 -9.93,-3.9 m 134.9,-57.53 -22.55,-8.86"
     stroke="#30242a"
     stroke-width="4"
     stroke-miterlimit="10"
     stroke-linecap="round"
     id="path316" />
  <path
     d="m 659.68052,749.8 h -143.42 m 85.56,-103.16 -14.49,32.36 a 27.55,27.55 0 0 1 -25.13,16.27 h -71"
     stroke="#30242a"
     stroke-width="4"
     stroke-linecap="round"
     stroke-linejoin="round"
     id="path318" />
  <path
     d="m 540.80052,503 c 1.71,1.47 8.65,3.47 12.36,-1.54"
     stroke="#30242a"
     stroke-width="4"
     stroke-miterlimit="10"
     stroke-linecap="round"
     id="path320" />
  <path
     d="m 611.26052,499.89 -12.56,4.87"
     stroke="#a15842"
     stroke-width="4"
     stroke-miterlimit="10"
     stroke-linecap="round"
     id="path322" />
  <path
     d="m 564.41052,480.24 a 7.206,7.206 0 0 1 -7.741,-2.988 7.2,7.2 0 0 1 -1.099,-2.712"
     stroke="#30242a"
     stroke-width="4"
     stroke-linecap="round"
     stroke-linejoin="round"
     id="path324" />
  <path
     d="m 598.15052,517.6 -4.54,18.55 a 5.749,5.749 0 0 0 6.92,7 l 16.95,-4 a 5.748,5.748 0 0 0 3,-9.34 l -12.41,-14.51 a 5.745,5.745 0 0 0 -5.655,-1.849 5.754,5.754 0 0 0 -4.265,4.149 z"
     fill="#f4e6d8"
     id="path326" />
  <path
     d="m 636.33052,948.62 c -9.92,-11.91 -44.43,-55 -44.43,-55"
     stroke="#30242a"
     stroke-width="4"
     stroke-linecap="round"
     stroke-linejoin="round"
     id="path328" />
  <path
     d="m 904.33052,852 c -3.64,-9.84 -10.32,-26.33 -18.56,-46.13 l -88.44,25.81 -10.14,3.2 c 4.56,29.49 8.06,43.87 8.06,43.87 0,0 -95.22,-87.29 -141.84,-99.19 h -119.08 l -40.67,238.06 h 355.1 c 101.22,0 72.45,-120.02 55.57,-165.62 z"
     fill="#4856df"
     id="path330" />
  <path
     d="m 808.04052,624.49 a 12.865,12.865 0 0 0 -5.85,-6.392 12.858,12.858 0 0 0 -8.57,-1.238 c -17.63,3.94 -19,37.32 -23.18,56.56 -6.94,31.75 -21.82,43.65 -22.81,64.48 -1,20 30.75,27.77 30.75,27.77 a 1427.68,1427.68 0 0 0 3.29,29.17 l 88.38,-26.42 c -24.24,-57.14 -52.95,-123.15 -62.01,-143.93 z m -20.9,210.16 v 0.23 l 10.14,-3.2 z"
     fill="#a15842"
     id="path332" />
  <path
     d="m 885.79052,805.84 c -0.26,-0.61 -0.51,-1.23 -0.77,-1.85 l -87.69,27.69 z"
     fill="#3ec1f3"
     id="path334" />
  <path
     d="m 885.02052,804 c -4.61,-11.06 -9.69,-23.11 -15,-35.57 l -88.38,26.42 c 1.89,15.44 3.76,28.69 5.47,39.81 l 10.18,-3 z"
     fill="#3ec1f3"
     id="path336" />
  <path
     d="m 617.07052,779.25 c 31.7,33.25 195.62,201.8 246.61,184.8 37.23,-12.41 -17.59,-134.68 -22.81,-150.77"
     stroke="#3ec1f3"
     stroke-width="4"
     stroke-linecap="round"
     stroke-linejoin="round"
     id="path338" />
  <path
     d="m 838.33052,914.6 c -11.49,-10.3 -32,-28.67 -42.9,-38.37 m -21.02,-133.37 1.94,20.73 m 22.98,-144.97 3.76,10.54 m -12.76,-9.54 6.08,14.95"
     stroke="#30242a"
     stroke-width="4"
     stroke-linecap="round"
     stroke-linejoin="round"
     id="path340" />
  <path
     d="m 559.86052,911.84 -0.56,-0.17 20.69,-132.31 h -45.66 c 0,0 -182.47,69.64 -224.13,136.09 -39.38,62.81 32.73,102.17 53.56,102.17 h 181.67 z"
     fill="#4856df"
     id="path342" />
  <path
     d="m 751.59052,1017.62 c 23.81,0 15.88,-26.79 -1,-35.71 -16.88,-8.92 -36.7,-17.86 -57.53,-45.63 -20.83,-27.77 -45.63,-20.83 -61.5,-1 0,0 -12.1,-4.35 -29.88,-10.25 l -13.92,92.58 z"
     fill="#ca7358"
     id="path344" />
  <path
     d="m 561.60052,912.36 -1.74,-0.52 -14.43,105.78 h 42.34 l 13.92,-92.62 c -11.56,-3.79 -25.51,-8.28 -40.09,-12.64 z"
     fill="#3ec1f3"
     id="path346" />
  <path
     d="m 740.68052,1006.71 14.65,8.91 m -293.37,-126.95 c 41.66,7.93 59.68,13 97.37,25 m 169.45,98 8.55,4.95 m -103.77,-82.57 13.88,5.21"
     stroke="#30242a"
     stroke-width="4"
     stroke-linecap="round"
     stroke-linejoin="round"
     id="path348" />
  <path
     d="m 968.20052,560.26 c 2.12,-12.52 11.76,-62.18 35.34998,-89.05"
     stroke="#30242a"
     stroke-width="4"
     stroke-miterlimit="10"
     stroke-linecap="round"
     id="path350" />
  <path
     d="m 1018.0605,514.525 c 20.6,-8.904 35.67,-19.879 33.67,-24.512 -2,-4.634 -20.32,-1.171 -40.92,7.733 -20.59998,8.905 -35.66998,19.879 -33.66998,24.513 2.01,4.633 20.33,1.171 40.91998,-7.734 z m 2.06,-129.616 c 7.44,-9.934 10.67,-20.092 7.21,-22.689 -3.47,-2.598 -12.31,3.35 -19.76,13.283 -7.45,9.934 -10.67998,20.092 -7.21,22.689 3.46,2.598 12.31,-3.349 19.76,-13.283 z"
     fill="#30242a"
     id="path352" />
  <path
     d="m 1060.3305,451.88 c -1.45,-4.72 -10.85,-6.24 -22.75,-4.25 8.71,-11.77 12.31,-23.26 8,-26.89 -4.31,-3.63 -15,1.85 -25.16,12.4 0,-12.06 -3.11,-21.08 -8,-21.71 -6.24,-0.81 -13.07998,12.34 -15.27998,29.36 a 76.542,76.542 0 0 0 -0.54,14.67 c 2.88,-0.902 5.93998,-1.07 8.89998,-0.491 2.96,0.58 5.73,1.89 8.05,3.811 a 18.101,18.101 0 0 1 6.47,16.02 77.017,77.017 0 0 0 13.92,-2.93 c 16.39,-5.02 28.21,-13.97 26.39,-19.99 z"
     fill="#ffbe21"
     id="path354" />
  <path
     d="m 1013.6805,458.9 a 18.097,18.097 0 0 0 -17.09998,-3.44 c 0.53,8.11 2.54,14.33 5.60998,16.65 2.85,2.69 9.51,3.62 17.81,2.69 0.34,-2.966 -0.06,-5.969 -1.17,-8.742 a 18.103,18.103 0 0 0 -5.15,-7.158 z"
     fill="#30242a"
     id="path356" />
  <path
     d="m 961.66052,558.67 c -0.69,-14.22 -4.82,-84 -20.3,-125.21"
     stroke="#30242a"
     stroke-width="4"
     stroke-miterlimit="10"
     stroke-linecap="round"
     id="path358" />
  <path
     d="m 910.61052,518.648 c 26.6,-5.069 47.44,-12.987 46.54,-17.686 -0.89,-4.698 -23.18,-4.397 -49.78,0.672 -26.6,5.07 -47.44,12.988 -46.54,17.686 0.89,4.698 23.18,4.398 49.78,-0.672 z"
     fill="#30242a"
     id="path360" />
  <path
     d="m 952.71052,374.12 c -4.82,-1.06 -10.75,6.4 -14.86,17.74 -6,-13.36 -14.24,-22.13 -19.5,-20.17 -5.26,1.96 -5.77,14 -1.54,28 -10.53,-5.88 -19.89,-7.63 -22.84,-3.67 -3.77,5 4.33,17.45 18.09,27.72 a 77.053,77.053 0 0 0 12.52,7.67 c 0.63,-2.952 1.98,-5.7 3.93,-7.997 a 18.141,18.141 0 0 1 16.12,-6.217 c 3,0.388 5.84,1.517 8.29,3.284 a 78.581,78.581 0 0 0 4.27,-13.57 c 3.67,-16.76 1.67,-31.44 -4.48,-32.79 z"
     fill="#ffbe21"
     id="path362" />
  <path
     d="m 935.97052,418.2 a 18.14,18.14 0 0 0 -7.4,5.145 18.095,18.095 0 0 0 -3.99,8.075 c 7.33,3.51 13.73,4.81 17.26,3.28 3.74,-1.18 7.82,-6.53 11.08,-14.21 a 18.104,18.104 0 0 0 -16.95,-2.29 z"
     fill="#30242a"
     id="path364" />
  <path
     d="m 889.82052,448.44 v 0.06 a 18.122,18.122 0 0 1 8.32,10.186 18.072,18.072 0 0 1 -0.75,13.134 18.144,18.144 0 0 1 -9.44,9.152 18.144,18.144 0 0 1 -13.14,0.378 v 0.07 c 22.38,10.23 43.89,11.13 48,2 4.11,-9.13 -10.61,-24.76 -32.99,-34.98 z"
     fill="#ffbe21"
     id="path366" />
  <path
     d="m 891.62052,478.87 a 8.824,8.824 0 0 1 -4.07,-4.955 8.848,8.848 0 0 1 0.37,-6.4 8.838,8.838 0 0 1 4.62,-4.449 8.8,8.8 0 0 1 6.41,-0.136 18.193,18.193 0 0 0 -9.16,-14.43 l -15,32.85 a 18.098,18.098 0 0 0 16.83,-2.48 z"
     fill="#f5ebdd"
     id="path368" />
  <path
     d="m 887.92052,467.54 a 8.802,8.802 0 0 0 3.7,11.33 18.197,18.197 0 0 0 5.73,-7.022 18.12,18.12 0 0 0 1.6,-8.918 8.808,8.808 0 0 0 -11.03,4.61 z"
     fill="#30242a"
     id="path370" />
</svg>
